<?xml version="1.0" encoding="UTF-8"?>
<svg xmlns="http://www.w3.org/2000/svg" xmlns:xlink="http://www.w3.org/1999/xlink" width="50pt" height="50pt" viewBox="0 0 50 50" version="1.1">
<g id="surface1">
<rect x="0" y="0" width="50" height="50" style="fill:rgb(96.862745%,87.45098%,11.764706%);fill-opacity:1;stroke:none;"/>
<path style=" stroke:none;fill-rule:nonzero;fill:rgb(0%,0%,0%);fill-opacity:1;" d="M 33.585938 39.0625 C 34.59375 40.707031 35.90625 41.914062 38.222656 41.914062 C 40.167969 41.914062 41.414062 40.941406 41.414062 39.597656 C 41.414062 37.988281 40.136719 37.417969 37.992188 36.480469 L 36.816406 35.976562 C 33.425781 34.53125 31.175781 32.722656 31.175781 28.894531 C 31.175781 25.371094 33.859375 22.691406 38.054688 22.691406 C 41.042969 22.691406 43.191406 23.730469 44.738281 26.453125 L 41.078125 28.800781 C 40.273438 27.355469 39.40625 26.789062 38.054688 26.789062 C 36.679688 26.789062 35.808594 27.660156 35.808594 28.800781 C 35.808594 30.210938 36.679688 30.78125 38.695312 31.652344 L 39.871094 32.15625 C 43.863281 33.867188 46.117188 35.613281 46.117188 39.539062 C 46.117188 43.769531 42.792969 46.085938 38.332031 46.085938 C 33.96875 46.085938 31.148438 44.007812 29.769531 41.28125 Z M 16.988281 39.46875 C 17.726562 40.78125 18.398438 41.886719 20.011719 41.886719 C 21.558594 41.886719 22.53125 41.28125 22.53125 38.933594 L 22.53125 22.957031 L 27.230469 22.957031 L 27.230469 38.996094 C 27.230469 43.863281 24.378906 46.078125 20.214844 46.078125 C 16.453125 46.078125 14.273438 44.128906 13.164062 41.785156 Z M 16.988281 39.46875 "/>
</g>
</svg>
